<svg width="513" height="298" viewBox="0 0 513 298" fill="none" xmlns="http://www.w3.org/2000/svg">
<path d="M427.002 134.858C420.867 134.858 414.921 135.465 409.155 136.608C409.155 136.311 409.191 136.014 409.191 135.728C409.191 60.7342 345.031 0 265.916 0C199.113 0 142.972 43.3363 127.166 101.962C119.876 100.461 112.34 99.6339 104.584 99.6339C46.8368 99.6373 0 143.99 0 198.752C0 253.47 46.8368 297.812 104.59 297.812H427.007C474.484 297.812 513 261.352 513 216.354C512.995 171.317 474.48 134.858 427.002 134.858Z" fill="url(#paint0_linear)"/>
<defs>
<linearGradient id="paint0_linear" x1="42" y1="124" x2="442" y2="284" gradientUnits="userSpaceOnUse">
<stop stop-color="#50C8EF"/>
<stop offset="1" stop-color="#F1A378" stop-opacity="0.53"/>
</linearGradient>
</defs>
</svg>
