<svg width="475" height="271" viewBox="0 0 475 271" fill="none" xmlns="http://www.w3.org/2000/svg">
<path d="M400.524 114.35C400.524 114.35 379.864 111.706 359.75 114.35Z" fill="#7FABDA"/>
<path d="M400.524 114.35C400.524 114.35 379.864 111.706 359.75 114.35" stroke="#7383BF" stroke-width="2" stroke-miterlimit="10" stroke-linecap="round"/>
<path d="M400.524 114.35C399.587 53.022 341.902 1.55 270.785 1.55C225.479 1.55 182.936 22.7352 159.447 53.2688C149.13 47.3256 136.733 43.85 123.4 43.85C87.3933 43.85 58.2 69.1031 58.2 100.25C58.2 101.329 58.3141 102.379 58.3874 103.451C58.3059 104.734 58.2 106.031 58.2 107.3C25.6978 120.78 1.14999 152.822 1.14999 185.943C1.14999 231.873 44.5895 269.45 97.6868 269.45H297.419C298.544 269.45 299.636 269.337 300.744 269.302C301.861 269.337 302.953 269.45 304.077 269.45H383.972C433.402 269.45 473.85 234.461 473.85 191.703C473.85 153.837 442.114 121.125 400.524 114.35Z" fill="#7FABDA" stroke="#7383BF" stroke-width="2" stroke-miterlimit="10" stroke-linecap="round"/>
<path d="M58.2 100.25C58.2 69.1031 87.3933 43.85 123.4 43.85C159.407 43.85 188.6 69.1031 188.6 100.25" fill="#7FABDA"/>
<path d="M58.2 100.25C58.2 69.1031 87.3933 43.85 123.4 43.85C159.407 43.85 188.6 69.1031 188.6 100.25" stroke="#7383BF" stroke-width="2" stroke-miterlimit="10" stroke-linecap="round"/>
</svg>
