<svg width="381" height="361" viewBox="0 0 381 361" fill="none" xmlns="http://www.w3.org/2000/svg">
<path d="M188.3 355.301C289.263 355.301 371.111 276.66 371.111 179.651C371.111 82.6415 289.263 4 188.3 4C87.3359 4 5.48854 82.6415 5.48854 179.651C5.48854 276.66 87.3359 355.301 188.3 355.301Z" fill="#6C63FF"/>
<path d="M192.897 360.136C296.4 360.136 380.306 279.517 380.306 180.068C380.306 80.6192 296.4 0 192.897 0C89.3942 0 5.48854 80.6192 5.48854 180.068C5.48854 279.517 89.3942 360.136 192.897 360.136Z" fill="url(#paint0_linear)"/>
<path opacity="0.05" d="M136.197 179.639C148.739 179.639 158.906 169.87 158.906 157.819C158.906 145.769 148.739 136 136.197 136C123.656 136 113.489 145.769 113.489 157.819C113.489 169.87 123.656 179.639 136.197 179.639Z" fill="black"/>
<path opacity="0.05" d="M269.919 195.225C295.562 195.225 316.35 175.251 316.35 150.612C316.35 125.974 295.562 106 269.919 106C244.276 106 223.489 125.974 223.489 150.612C223.489 175.251 244.276 195.225 269.919 195.225Z" fill="black"/>
<path opacity="0.05" d="M146.197 285.639C158.739 285.639 168.906 275.87 168.906 263.819C168.906 251.769 158.739 242 146.197 242C133.656 242 123.489 251.769 123.489 263.819C123.489 275.87 133.656 285.639 146.197 285.639Z" fill="black"/>
<g opacity="0.5">
<path opacity="0.5" d="M281 300.951H279.136V311.093H281V300.951Z" fill="#47E6B1"/>
<path opacity="0.5" d="M285.343 306.92V305.129H274.787V306.92H285.343Z" fill="#47E6B1"/>
</g>
<g opacity="0.5">
<path opacity="0.5" d="M6.207 190.253H4.34259V200.395H6.207V190.253Z" fill="#47E6B1"/>
<path opacity="0.5" d="M10.5554 196.223V194.431H-7.62939e-06V196.223H10.5554Z" fill="#47E6B1"/>
</g>
<path opacity="0.5" d="M107.089 221.032C106.576 220.817 106.162 220.429 105.927 219.941C105.692 219.452 105.652 218.898 105.815 218.383C105.843 218.304 105.86 218.222 105.867 218.139V218.139C105.873 217.907 105.803 217.679 105.667 217.487C105.532 217.295 105.337 217.149 105.111 217.069C104.884 216.989 104.637 216.978 104.404 217.039C104.171 217.101 103.964 217.23 103.812 217.41C103.761 217.477 103.718 217.55 103.684 217.627C103.461 218.12 103.057 218.518 102.549 218.743C102.041 218.969 101.464 219.007 100.928 218.851C100.846 218.824 100.76 218.808 100.674 218.801V218.801C100.432 218.795 100.195 218.862 99.9956 218.993C99.796 219.123 99.6437 219.31 99.5601 219.528C99.4766 219.745 99.4659 219.983 99.5295 220.206C99.5932 220.43 99.728 220.629 99.9151 220.776C99.9851 220.825 100.061 220.866 100.141 220.898C100.654 221.112 101.068 221.501 101.303 221.989C101.538 222.477 101.578 223.032 101.415 223.546C101.387 223.626 101.37 223.708 101.363 223.791V223.791C101.357 224.023 101.427 224.251 101.563 224.442C101.698 224.634 101.893 224.781 102.119 224.861C102.346 224.941 102.593 224.951 102.826 224.89C103.059 224.829 103.266 224.7 103.418 224.52C103.469 224.453 103.512 224.38 103.546 224.303C103.769 223.809 104.173 223.412 104.681 223.186C105.189 222.961 105.766 222.922 106.302 223.079C106.384 223.105 106.47 223.122 106.556 223.129V223.129C106.798 223.134 107.035 223.067 107.234 222.937C107.434 222.806 107.586 222.619 107.67 222.402C107.753 222.184 107.764 221.947 107.7 221.723C107.637 221.499 107.502 221.3 107.315 221.154C107.245 221.105 107.169 221.064 107.089 221.032V221.032Z" fill="#4D8AF0"/>
<path opacity="0.5" d="M239.089 297.032C238.576 296.817 238.162 296.429 237.927 295.941C237.692 295.452 237.652 294.898 237.815 294.383C237.843 294.304 237.86 294.222 237.867 294.139V294.139C237.873 293.907 237.803 293.679 237.667 293.487C237.532 293.295 237.337 293.149 237.111 293.069C236.884 292.989 236.637 292.978 236.404 293.039C236.171 293.101 235.964 293.23 235.812 293.41C235.761 293.477 235.718 293.55 235.685 293.627C235.461 294.12 235.057 294.518 234.549 294.743C234.041 294.969 233.464 295.007 232.928 294.851C232.846 294.824 232.76 294.808 232.674 294.801V294.801C232.432 294.795 232.195 294.862 231.996 294.993C231.796 295.123 231.644 295.31 231.56 295.528C231.477 295.745 231.466 295.983 231.53 296.206C231.593 296.43 231.728 296.629 231.915 296.776C231.985 296.825 232.061 296.866 232.141 296.898C232.654 297.112 233.068 297.501 233.303 297.989C233.538 298.477 233.578 299.032 233.415 299.546C233.387 299.626 233.37 299.708 233.363 299.791V299.791C233.357 300.023 233.427 300.251 233.563 300.442C233.698 300.634 233.893 300.781 234.119 300.861C234.346 300.941 234.593 300.951 234.826 300.89C235.059 300.829 235.266 300.7 235.418 300.52C235.469 300.453 235.512 300.38 235.546 300.303C235.769 299.809 236.173 299.412 236.681 299.186C237.189 298.961 237.766 298.922 238.302 299.079C238.384 299.105 238.47 299.122 238.556 299.129V299.129C238.798 299.134 239.035 299.067 239.234 298.937C239.434 298.806 239.586 298.619 239.67 298.402C239.753 298.184 239.764 297.947 239.701 297.723C239.637 297.5 239.502 297.3 239.315 297.154C239.245 297.105 239.169 297.064 239.089 297.032V297.032Z" fill="#4D8AF0"/>
<path opacity="0.5" d="M162.089 83.0316C161.576 82.8173 161.162 82.429 160.927 81.9407C160.692 81.4524 160.652 80.8981 160.815 80.3834C160.843 80.3041 160.86 80.222 160.867 80.1387V80.1387C160.873 79.9068 160.803 79.679 160.667 79.4872C160.532 79.2954 160.337 79.1491 160.111 79.0688C159.884 78.9885 159.637 78.9782 159.404 79.0394C159.171 79.1005 158.964 79.2301 158.812 79.4099C158.761 79.4771 158.718 79.5499 158.684 79.6268C158.461 80.1203 158.057 80.5176 157.549 80.7433C157.041 80.969 156.464 81.0073 155.928 80.8508C155.846 80.8244 155.76 80.8076 155.674 80.8007V80.8007C155.432 80.7953 155.195 80.8625 154.996 80.9928C154.796 81.1232 154.644 81.3103 154.56 81.5279C154.477 81.7455 154.466 81.9827 154.53 82.2064C154.593 82.4302 154.728 82.6292 154.915 82.7757C154.985 82.8249 155.061 82.866 155.141 82.8981C155.654 83.1124 156.068 83.5006 156.303 83.989C156.538 84.4773 156.578 85.0315 156.415 85.5462C156.387 85.6255 156.37 85.7077 156.363 85.791V85.791C156.357 86.0229 156.427 86.2506 156.563 86.4425C156.698 86.6343 156.893 86.7806 157.119 86.8609C157.346 86.9412 157.593 86.9514 157.826 86.8903C158.059 86.8291 158.266 86.6996 158.418 86.5198C158.469 86.4526 158.512 86.3797 158.546 86.3028C158.769 85.8094 159.173 85.412 159.681 85.1863C160.189 84.9607 160.766 84.9224 161.302 85.0789C161.384 85.1053 161.47 85.1221 161.556 85.129V85.129C161.798 85.1344 162.035 85.0672 162.234 84.9368C162.434 84.8065 162.586 84.6194 162.67 84.4018C162.753 84.1842 162.764 83.947 162.7 83.7232C162.637 83.4995 162.502 83.3005 162.315 83.154C162.245 83.1047 162.169 83.0636 162.089 83.0316V83.0316Z" fill="#4D8AF0"/>
<path opacity="0.5" d="M236.219 212.622C235.706 212.408 235.292 212.019 235.057 211.531C234.822 211.043 234.783 210.489 234.945 209.974C234.973 209.895 234.99 209.812 234.998 209.729V209.729C235.003 209.497 234.933 209.269 234.798 209.078C234.662 208.886 234.467 208.74 234.241 208.659C234.014 208.579 233.767 208.569 233.535 208.63C233.302 208.691 233.095 208.82 232.942 209V209C232.891 209.068 232.848 209.14 232.815 209.217C232.592 209.711 232.188 210.108 231.679 210.334C231.171 210.559 230.594 210.598 230.059 210.441C229.976 210.415 229.891 210.398 229.804 210.391V210.391C229.563 210.386 229.325 210.453 229.126 210.583C228.926 210.714 228.774 210.901 228.69 211.118C228.607 211.336 228.596 211.573 228.66 211.797C228.723 212.021 228.858 212.22 229.045 212.366V212.366C229.115 212.415 229.191 212.456 229.271 212.489C229.785 212.703 230.198 213.091 230.433 213.579C230.668 214.068 230.708 214.622 230.545 215.137C230.518 215.216 230.5 215.298 230.493 215.381V215.381C230.487 215.613 230.557 215.841 230.693 216.033C230.829 216.225 231.023 216.371 231.25 216.451C231.476 216.532 231.723 216.542 231.956 216.481C232.189 216.42 232.396 216.29 232.548 216.11V216.11C232.6 216.043 232.642 215.97 232.676 215.893C232.899 215.4 233.303 215.002 233.811 214.777C234.319 214.551 234.896 214.513 235.432 214.669C235.514 214.696 235.6 214.713 235.687 214.719V214.719C235.928 214.725 236.165 214.658 236.365 214.527C236.564 214.397 236.717 214.21 236.8 213.992C236.884 213.775 236.894 213.537 236.831 213.314C236.767 213.09 236.632 212.891 236.445 212.744V212.744C236.375 212.695 236.299 212.654 236.219 212.622V212.622Z" fill="#4D8AF0"/>
<path opacity="0.5" d="M228.212 68.8547C230.268 68.8547 231.935 67.2531 231.935 65.2775C231.935 63.3018 230.268 61.7003 228.212 61.7003C226.155 61.7003 224.489 63.3018 224.489 65.2775C224.489 67.2531 226.155 68.8547 228.212 68.8547Z" fill="#F55F44"/>
<path opacity="0.5" d="M45.9445 171.154C48.0007 171.154 49.6676 169.553 49.6676 167.577C49.6676 165.602 48.0007 164 45.9445 164C43.8883 164 42.2215 165.602 42.2215 167.577C42.2215 169.553 43.8883 171.154 45.9445 171.154Z" fill="#47E6B1"/>
<path opacity="0.5" d="M248.212 224.154C250.268 224.154 251.935 222.553 251.935 220.577C251.935 218.602 250.268 217 248.212 217C246.155 217 244.489 218.602 244.489 220.577C244.489 222.553 246.155 224.154 248.212 224.154Z" fill="#F55F44"/>
<defs>
<linearGradient id="paint0_linear" x1="192.897" y1="360.136" x2="192.897" y2="0" gradientUnits="userSpaceOnUse">
<stop stop-color="#808080" stop-opacity="0.25"/>
<stop offset="0.54" stop-color="#808080" stop-opacity="0.12"/>
<stop offset="1" stop-color="#808080" stop-opacity="0.1"/>
</linearGradient>
</defs>
</svg>
