<svg width="708" height="764" viewBox="0 0 708 764" fill="none" xmlns="http://www.w3.org/2000/svg">
<rect width="708" height="764" fill="#E5E5E5"/>
<path d="M130.631 190.623H129.46V189.413H128.985V190.623H127.814V191.114H128.985V192.325H129.46V191.114H130.631V190.623Z" fill="white"/>
<path d="M625.714 701.57C620.498 702.034 615.251 701.961 610.049 701.354C552.86 694.818 474.984 696.677 411.501 737.336C323.706 793.558 186.113 745.427 125.418 719.243C79.0434 699.243 54.968 650.259 69.4291 604.28C69.6327 603.631 69.8419 602.982 70.0625 602.333C79.1622 575.008 97.124 553.623 119.367 542.288C138.754 532.408 167.06 511.777 179.655 472.135C184.858 455.766 191.995 440.367 201.264 426.944C226.086 390.997 278.049 337.464 367.417 337.798C383.086 337.876 398.637 340.597 413.458 345.853C446.107 357.353 475.595 380.731 498.081 413.142C512.429 433.814 533.931 453.03 564.714 454.596C607.436 456.783 648.206 477.344 678.791 513.934C679.673 514.987 680.544 516.045 681.415 517.114C735.872 584.175 698.048 695.034 625.714 701.57Z" fill="#6C63FF"/>
<path d="M334.794 1.21014H333.623V0H333.148V1.21014H331.977V1.70121H333.148V2.91134H333.623V1.70121H334.794V1.21014Z" fill="white"/>
<path d="M501.631 112.286H500.46V111.076H499.985V112.286H498.814V112.777H499.985V113.987H500.46V112.777H501.631V112.286Z" fill="white"/>
<path d="M2.81643 230.377H1.64575V229.167H1.17068V230.377H0V230.868H1.17068V232.078H1.64575V230.868H2.81643V230.377Z" fill="white"/>
<path d="M50.8881 329.76H49.7174V328.55H49.2423V329.76H48.0717V330.251H49.2423V331.461H49.7174V330.251H50.8881V329.76Z" fill="white"/>
<path d="M201.89 15.8254H200.719V14.6152H200.244V15.8254H199.073V16.3164H200.244V17.5266H200.719V16.3164H201.89V15.8254Z" fill="white"/>
<path d="M317.279 730.791H316.912C315.181 730.791 313.521 730.08 312.297 728.815C311.073 727.55 310.385 725.834 310.385 724.045V693.142H323.806V724.045C323.806 725.834 323.118 727.55 321.894 728.815C320.67 730.08 319.01 730.791 317.279 730.791Z" fill="url(#paint0_linear)"/>
<path d="M360.889 730.791H360.515C358.785 730.789 357.127 730.078 355.904 728.813C354.681 727.548 353.995 725.833 353.995 724.045V693.142H367.409V724.045C367.409 725.833 366.723 727.548 365.5 728.813C364.277 730.078 362.619 730.789 360.889 730.791Z" fill="url(#paint1_linear)"/>
<path d="M388.199 730.791H387.82C386.092 730.786 384.436 730.073 383.216 728.809C381.996 727.544 381.311 725.831 381.311 724.045V693.142H394.725V724.045C394.725 725.834 394.038 727.55 392.814 728.815C391.59 730.08 389.93 730.791 388.199 730.791Z" fill="url(#paint2_linear)"/>
<path d="M432.289 730.791H431.933C431.075 730.793 430.225 730.619 429.432 730.281C428.639 729.942 427.918 729.446 427.311 728.819C426.703 728.193 426.222 727.448 425.893 726.629C425.564 725.81 425.395 724.932 425.395 724.045V693.142H438.81V724.045C438.81 725.833 438.123 727.548 436.9 728.813C435.678 730.078 434.019 730.789 432.289 730.791Z" fill="url(#paint3_linear)"/>
<path d="M394.725 693.142H381.311L383.703 676.3H392.328L394.725 693.142Z" fill="#535461"/>
<path d="M367.409 693.142H353.995L356.387 676.3H365.017L367.409 693.142Z" fill="#535461"/>
<path d="M438.81 693.142H425.395L427.787 676.3H436.418L438.81 693.142Z" fill="#535461"/>
<path d="M323.806 693.142H310.385L312.783 676.3H321.408L323.806 693.142Z" fill="#535461"/>
<path d="M378.964 354.946C378.263 354.084 377.388 353.391 376.401 352.916C375.414 352.441 374.338 352.194 373.249 352.194C372.16 352.194 371.084 352.441 370.096 352.916C369.109 353.391 368.235 354.084 367.534 354.946C363.575 359.553 359.955 365.639 356.788 372.116C347.479 391.315 342.751 413.109 342.751 435.207V679.93H403.265V434.225C403.265 412.752 398.741 391.548 389.896 372.783C385.739 363.879 381.91 358.343 378.964 354.946Z" fill="url(#paint4_linear)"/>
<path d="M382.187 382.13H363.049C359.613 382.13 356.828 385.01 356.828 388.561V390.66C356.828 394.211 359.613 397.091 363.049 397.091H382.187C385.623 397.091 388.408 394.211 388.408 390.66V388.561C388.408 385.01 385.623 382.13 382.187 382.13Z" fill="#535461"/>
<path opacity="0.1" d="M402.977 443.573H343.08V445.976H402.977V443.573Z" fill="black"/>
<path d="M419.644 537.11H323.806V541.074H419.644V537.11Z" fill="#535461"/>
<path d="M434.455 474.51C433.949 473.932 433.331 473.47 432.641 473.154C431.952 472.837 431.206 472.674 430.451 472.674C429.697 472.674 428.951 472.837 428.261 473.154C427.571 473.47 426.953 473.932 426.447 474.51C423.659 477.585 421.137 481.648 418.937 485.969C412.411 498.969 409.036 513.414 409.102 528.06V680.55H451.518V527.417C451.571 513.176 448.36 499.124 442.147 486.413C439.2 480.473 436.52 476.755 434.455 474.51Z" fill="#E0E0E0"/>
<path d="M312.823 474.51C313.329 473.932 313.947 473.47 314.637 473.154C315.326 472.837 316.072 472.674 316.827 472.674C317.581 472.674 318.327 472.837 319.017 473.154C319.707 473.47 320.324 473.932 320.831 474.51C323.625 477.585 326.141 481.648 328.347 485.969C334.87 498.97 338.245 513.414 338.182 528.06V680.55H295.766V527.417C295.713 513.176 298.924 499.124 305.137 486.413C308.078 480.473 310.758 476.755 312.823 474.51Z" fill="#E0E0E0"/>
<path d="M296.009 530.668L306.076 530.72V543.547H296.009V530.668Z" fill="#535461"/>
<path d="M328.115 530.668L338.182 530.72V543.547H328.115V530.668Z" fill="#535461"/>
<path d="M409.102 530.668L419.163 530.72V543.547H409.102V530.668Z" fill="#535461"/>
<path d="M441.208 530.668L451.269 530.72V543.547H441.208V530.668Z" fill="#535461"/>
<path opacity="0.1" d="M328.347 485.77C326.141 481.45 323.625 477.387 320.831 474.312C320.042 473.407 318.988 472.796 317.83 472.571C316.673 472.346 315.476 472.52 314.423 473.066C315.029 473.379 315.577 473.801 316.041 474.312C318.829 477.387 321.351 481.45 323.551 485.77C330.077 498.771 333.452 513.215 333.386 527.862V680.339H338.182V527.867C338.246 513.219 334.871 498.773 328.347 485.77Z" fill="black"/>
<path opacity="0.1" d="M422.771 486.191C424.971 481.87 427.493 477.807 430.282 474.732C430.803 474.15 431.434 473.684 432.137 473.364C431.1 472.895 429.947 472.775 428.841 473.021C427.735 473.266 426.731 473.865 425.972 474.732C423.178 477.807 420.656 481.87 418.456 486.191C411.933 499.193 408.558 513.636 408.621 528.283V680.784H412.936V528.294C412.868 513.644 416.243 499.195 422.771 486.191Z" fill="black"/>
<path opacity="0.2" d="M227.057 645.462C230.006 645.462 232.398 647.597 232.398 650.231C232.398 652.865 230.006 655 227.057 655C224.107 655 221.716 652.865 221.716 650.231C221.716 647.597 224.107 645.462 227.057 645.462Z" fill="black"/>
<path d="M195.11 494.018C196.251 494.018 197.177 494.844 197.177 495.863C197.177 496.883 196.251 497.709 195.11 497.709C193.969 497.709 193.043 496.883 193.043 495.863C193.043 494.844 193.969 494.018 195.11 494.018Z" fill="white"/>
<path d="M342.614 386.913C343.756 386.913 344.681 387.74 344.681 388.759C344.681 389.778 343.756 390.604 342.614 390.604C341.473 390.604 340.548 389.778 340.548 388.759C340.548 387.74 341.473 386.913 342.614 386.913Z" fill="white"/>
<path d="M255.49 378.32C256.127 378.32 256.644 378.781 256.644 379.351C256.644 379.921 256.127 380.382 255.49 380.382C254.852 380.382 254.335 379.921 254.335 379.351C254.335 378.781 254.852 378.32 255.49 378.32Z" fill="white"/>
<path d="M511.191 428.254C511.829 428.254 512.346 428.715 512.346 429.285C512.346 429.854 511.829 430.316 511.191 430.316C510.553 430.316 510.036 429.854 510.036 429.285C510.036 428.715 510.553 428.254 511.191 428.254Z" fill="white"/>
<path d="M445.138 520.885C445.776 520.885 446.293 521.346 446.293 521.916C446.293 522.485 445.776 522.947 445.138 522.947C444.5 522.947 443.983 522.485 443.983 521.916C443.983 521.346 444.5 520.885 445.138 520.885Z" fill="white"/>
<path d="M538.747 475.655C539.385 475.655 539.902 476.116 539.902 476.686C539.902 477.255 539.385 477.717 538.747 477.717C538.109 477.717 537.592 477.255 537.592 476.686C537.592 476.116 538.109 475.655 538.747 475.655Z" fill="white"/>
<path d="M231.581 554.445C232.722 554.445 233.648 555.272 233.648 556.291C233.648 557.31 232.722 558.136 231.581 558.136C230.439 558.136 229.514 557.31 229.514 556.291C229.514 555.272 230.439 554.445 231.581 554.445Z" fill="white"/>
<path d="M174.78 431.431H172.94V433.073H172.19V431.431H170.35V430.761H172.19V429.122H172.94V430.761H174.78V431.431Z" fill="white"/>
<path d="M220.976 432.154H219.136V433.797H218.387V432.154H216.547V431.485H218.387V429.846H219.136V431.485H220.976V432.154Z" fill="white"/>
<path d="M287.029 398.865H285.189V400.508H284.439V398.865H282.6V398.196H284.439V396.556H285.189V398.196H287.029V398.865Z" fill="white"/>
<path d="M428.062 484.802H427.223V485.551H426.883V484.802H426.044V484.498H426.883V483.749H427.223V484.498H428.062V484.802Z" fill="white"/>
<path d="M243.681 512.302H242.842V513.051H242.502V512.302H241.663V511.998H242.502V511.249H242.842V511.998H243.681V512.302Z" fill="white"/>
<path opacity="0.2" d="M594.335 490.067C596.723 490.067 598.659 491.795 598.659 493.927C598.659 496.06 596.723 497.788 594.335 497.788C591.947 497.788 590.011 496.06 590.011 493.927C590.011 491.795 591.947 490.067 594.335 490.067Z" fill="black"/>
<path opacity="0.2" d="M551.138 546.098C553.807 546.098 555.972 548.03 555.972 550.414C555.972 552.798 553.807 554.731 551.138 554.731C548.468 554.731 546.303 552.798 546.303 550.414C546.303 548.03 548.468 546.098 551.138 546.098Z" fill="black"/>
<path opacity="0.2" d="M539.654 611.066C539.654 608.081 538.38 605.208 536.091 603.031C533.803 600.855 530.672 599.538 527.335 599.35C527.064 599.35 526.784 599.324 526.504 599.324C524.486 599.323 522.495 599.737 520.684 600.533C518.873 601.33 517.292 602.487 516.063 603.917C514.834 605.346 513.99 607.009 513.596 608.777C513.202 610.544 513.269 612.369 513.791 614.11C514.314 615.851 515.278 617.461 516.609 618.816C517.94 620.17 519.602 621.233 521.467 621.923C523.332 622.612 525.35 622.908 527.364 622.789C529.378 622.671 531.334 622.139 533.081 621.237C534.604 620.448 535.935 619.395 536.996 618.14C538.724 616.105 539.658 613.62 539.654 611.066Z" fill="black"/>
<path opacity="0.1" d="M523.017 610.934C522.337 610.673 521.681 610.365 521.055 610.012C520.637 609.808 520.278 609.521 520.006 609.172C519.87 608.997 519.796 608.79 519.792 608.577C519.787 608.364 519.853 608.154 519.981 607.975C520.301 607.584 520.917 607.526 521.46 607.497C522.031 607.432 522.61 607.484 523.154 607.649C523.522 607.811 523.856 608.028 524.143 608.289L525.274 609.205C525.679 609.523 526.084 609.961 525.926 610.41C525.833 610.57 525.696 610.707 525.528 610.808C525.36 610.909 525.167 610.971 524.966 610.989C523.991 611.158 522.981 611 522.129 610.544" fill="black"/>
<path opacity="0.2" d="M148.347 578.087C148.346 576.004 147.457 574 145.861 572.481C144.264 570.963 142.08 570.045 139.752 569.913C139.561 569.913 139.346 569.913 139.172 569.913C137.765 569.913 136.377 570.203 135.115 570.759C133.853 571.314 132.752 572.122 131.895 573.119C131.039 574.116 130.451 575.275 130.176 576.507C129.902 577.74 129.948 579.012 130.313 580.225C130.677 581.439 131.349 582.561 132.276 583.506C133.204 584.451 134.362 585.192 135.662 585.673C136.962 586.154 138.368 586.362 139.773 586.28C141.177 586.198 142.541 585.829 143.759 585.201C144.824 584.648 145.752 583.91 146.491 583.03C147.699 581.608 148.351 579.872 148.347 578.087Z" fill="black"/>
<g opacity="0.1">
<path opacity="0.1" d="M353.818 440.624C353.028 439.62 351.996 438.789 350.798 438.19C349.6 437.591 348.267 437.241 346.896 437.164C346.896 437.277 346.896 437.392 346.896 437.526C346.897 438.245 347.121 438.95 347.544 439.562C347.967 440.173 348.572 440.668 349.291 440.991C350.01 441.314 350.816 441.453 351.618 441.391C352.42 441.329 353.187 441.07 353.834 440.642L353.818 440.624Z" fill="black"/>
</g>
<g opacity="0.1">
<path opacity="0.1" d="M353.639 450.274C353.636 449.857 353.498 449.45 353.241 449.101C352.985 448.752 352.622 448.476 352.195 448.307C351.769 448.138 351.296 448.082 350.834 448.146C350.373 448.21 349.942 448.391 349.593 448.668C349.244 448.945 348.991 449.306 348.866 449.708C348.741 450.11 348.747 450.536 348.886 450.934C349.024 451.332 349.288 451.687 349.646 451.955C350.004 452.223 350.441 452.393 350.904 452.445C351.97 451.892 352.9 451.154 353.639 450.274Z" fill="black"/>
</g>
<path d="M612.254 474.626C612.666 474.626 613 474.924 613 475.292C613 475.659 612.666 475.957 612.254 475.957C611.843 475.957 611.509 475.659 611.509 475.292C611.509 474.924 611.843 474.626 612.254 474.626Z" fill="white"/>
<path d="M354.065 450.56C353.28 451.486 352.297 452.264 351.171 452.847C349.88 453.523 348.431 453.924 346.938 454.019C345.445 454.113 343.947 453.899 342.562 453.392C341.176 452.885 339.941 452.099 338.951 451.096C337.962 450.093 337.245 448.899 336.857 447.608C336.469 446.317 336.42 444.963 336.714 443.652C337.007 442.342 337.636 441.109 338.551 440.051C339.465 438.992 340.641 438.137 341.987 437.551C343.333 436.965 344.812 436.664 346.309 436.672C346.515 436.672 346.714 436.672 346.925 436.69C348.671 436.795 350.353 437.319 351.793 438.206C353.234 439.093 354.38 440.311 355.11 441.731C355.84 443.151 356.128 444.721 355.942 446.275C355.757 447.829 355.106 449.309 354.057 450.56H354.065Z" fill="url(#paint5_linear)"/>
<g opacity="0.1">
<path opacity="0.1" d="M533.344 503.349C532.212 501.911 530.733 500.719 529.016 499.861C527.299 499.002 525.388 498.5 523.424 498.391C523.424 498.554 523.399 498.717 523.399 498.883C523.4 499.914 523.722 500.924 524.328 501.801C524.934 502.678 525.801 503.387 526.832 503.85C527.863 504.313 529.017 504.511 530.167 504.423C531.317 504.334 532.417 503.962 533.344 503.349Z" fill="black"/>
</g>
<path d="M533.696 517.591C532.571 518.91 531.163 520.017 529.555 520.847C527.707 521.799 525.638 522.358 523.51 522.482C521.381 522.606 519.249 522.291 517.278 521.561C515.308 520.832 513.551 519.708 512.145 518.275C510.739 516.843 509.72 515.141 509.168 513.302C508.616 511.462 508.545 509.533 508.961 507.665C509.376 505.797 510.268 504.039 511.566 502.527C512.864 501.016 514.534 499.791 516.447 498.948C518.359 498.104 520.464 497.665 522.597 497.664C522.893 497.664 523.188 497.664 523.476 497.693C525.983 497.834 528.401 498.579 530.472 499.849C532.543 501.118 534.19 502.865 535.239 504.903C536.287 506.942 536.698 509.196 536.427 511.426C536.156 513.656 535.214 515.779 533.7 517.569L533.696 517.591Z" fill="url(#paint6_linear)"/>
<g opacity="0.7">
<path opacity="0.7" d="M528.473 425.017C531.051 425.017 533.141 426.884 533.141 429.186C533.141 431.488 531.051 433.354 528.473 433.354C525.894 433.354 523.804 431.488 523.804 429.186C523.804 426.884 525.894 425.017 528.473 425.017Z" fill="url(#paint7_linear)"/>
</g>
<g opacity="0.7">
<path opacity="0.7" d="M337.734 378C340.822 378 343.326 380.236 343.326 382.993C343.326 385.751 340.822 387.987 337.734 387.987C334.645 387.987 332.142 385.751 332.142 382.993C332.142 380.236 334.645 378 337.734 378Z" fill="url(#paint8_linear)"/>
</g>
<defs>
<linearGradient id="paint0_linear" x1="317.098" y1="693.142" x2="317.098" y2="730.791" gradientUnits="userSpaceOnUse">
<stop stop-color="#E0E0E0"/>
<stop offset="0.31" stop-color="#FCCC63"/>
<stop offset="0.77" stop-color="#F55F44"/>
</linearGradient>
<linearGradient id="paint1_linear" x1="7518.13" y1="24341.8" x2="7518.13" y2="26766.4" gradientUnits="userSpaceOnUse">
<stop offset="0.286458" stop-color="#FCCC63"/>
<stop offset="0.828125" stop-color="#C7D281"/>
<stop offset="1" stop-color="#E0E0E0"/>
</linearGradient>
<linearGradient id="paint2_linear" x1="8193.43" y1="24341.8" x2="8193.43" y2="26766.4" gradientUnits="userSpaceOnUse">
<stop offset="0.31" stop-color="#DE9E13"/>
<stop offset="0.40625" stop-color="#E0E0E0"/>
<stop offset="0.77" stop-color="#F55F44"/>
</linearGradient>
<linearGradient id="paint3_linear" x1="9283.2" y1="24341.9" x2="9283.2" y2="26766.4" gradientUnits="userSpaceOnUse">
<stop offset="0.203125" stop-color="#FCCC63"/>
<stop offset="0.588542" stop-color="#D58713"/>
<stop offset="0.84375" stop-color="#EB6B35"/>
<stop offset="0.963542" stop-color="#F55F44"/>
</linearGradient>
<linearGradient id="paint4_linear" x1="373.008" y1="352.194" x2="373.008" y2="679.93" gradientUnits="userSpaceOnUse">
<stop stop-color="#DF9D9D"/>
<stop offset="0.458333" stop-color="#FF7878" stop-opacity="0.901042"/>
<stop offset="0.957496" stop-color="#E0A1A1" stop-opacity="0.947917"/>
<stop offset="1" stop-color="#EEEEEE" stop-opacity="0"/>
</linearGradient>
<linearGradient id="paint5_linear" x1="6782.91" y1="-9582.23" x2="6782.91" y2="-8750.12" gradientUnits="userSpaceOnUse">
<stop stop-color="#808080" stop-opacity="0.25"/>
<stop offset="0.54" stop-color="#808080" stop-opacity="0.12"/>
<stop offset="1" stop-color="#808080" stop-opacity="0.1"/>
</linearGradient>
<linearGradient id="paint6_linear" x1="21815.7" y1="-9644.37" x2="21815.7" y2="-7938.59" gradientUnits="userSpaceOnUse">
<stop stop-color="#808080" stop-opacity="0.25"/>
<stop offset="0.54" stop-color="#808080" stop-opacity="0.12"/>
<stop offset="1" stop-color="#808080" stop-opacity="0.1"/>
</linearGradient>
<linearGradient id="paint7_linear" x1="7508.94" y1="-4294.94" x2="7508.94" y2="-4102.95" gradientUnits="userSpaceOnUse">
<stop stop-color="#808080" stop-opacity="0.25"/>
<stop offset="0.54" stop-color="#808080" stop-opacity="0.12"/>
<stop offset="1" stop-color="#808080" stop-opacity="0.1"/>
</linearGradient>
<linearGradient id="paint8_linear" x1="337.734" y1="378" x2="337.734" y2="387.983" gradientUnits="userSpaceOnUse">
<stop stop-color="#808080" stop-opacity="0.25"/>
<stop offset="0.54" stop-color="#808080" stop-opacity="0.12"/>
<stop offset="1" stop-color="#808080" stop-opacity="0.1"/>
</linearGradient>
</defs>
</svg>
