<svg width="383" height="325" viewBox="0 0 383 325" fill="none" xmlns="http://www.w3.org/2000/svg">
<path d="M360.833 131.098C360.833 134.398 358.957 137.7 355.204 141L276.489 210.299L295.126 310.949C295.27 310.949 295.342 312.6 295.342 314.25C295.342 317.55 294.548 319.198 292.961 320.848C291.517 322.498 289.352 324.15 286.448 324.15C283.705 324.15 280.819 324.15 277.788 322.5L180.417 274.65L83.053 322.5C79.8723 324.15 76.9802 324.15 74.3786 324.15C71.3422 324.15 69.0292 322.498 67.4397 320.848C65.9928 319.198 65.2711 317.55 65.2711 314.25C65.2711 314.25 65.4155 312.599 65.7041 310.949L84.3538 210.299L5.42152 141C1.80777 137.7 0 134.398 0 131.098C0 126.148 4.04855 122.848 12.1438 122.848L121 108L169.79 17.25C172.532 12.3 176.087 9 180.417 9C184.747 9 188.301 12.3 191.043 17.25L239.828 108L348.691 122.848C356.792 122.848 360.833 126.148 360.833 131.098Z" fill="#F1C40F"/>
<path d="M382.833 122.098C382.833 125.398 380.957 128.7 377.204 132L298.489 201.299L317.126 301.949C317.27 301.949 317.342 303.6 317.342 305.25C317.342 308.55 316.548 310.198 314.961 311.848C313.517 313.498 311.352 315.15 308.448 315.15C305.705 315.15 302.819 315.15 299.788 313.5L202.417 265.65L105.053 313.5C101.872 315.15 98.9802 315.15 96.3786 315.15C93.3422 315.15 91.0292 313.498 89.4397 311.848C87.9928 310.198 87.2711 308.55 87.2711 305.25C87.2711 305.25 87.4155 303.599 87.7041 301.949L106.354 201.299L27.4215 132C23.8078 128.7 22 125.398 22 122.098C22 117.148 26.0485 113.848 34.1438 113.848L143 99L191.79 8.25C194.532 3.3 198.087 0 202.417 0C206.747 0 210.301 3.3 213.043 8.25L261.828 99L370.691 113.848C378.792 113.848 382.833 117.148 382.833 122.098Z" fill="#E67E22"/>
</svg>
