<svg width="348" height="321" viewBox="0 0 348 321" fill="none" xmlns="http://www.w3.org/2000/svg">
<path d="M188.892 69.7617L174 0L159.108 69.7617H174H188.892Z" fill="#F7A663"/>
<path d="M124.814 81.9182L137.71 75.05L86.9991 21.5026L111.917 88.7864L124.814 81.9182Z" fill="#FFC80A"/>
<path d="M88.8085 115.132L96.2526 103.234L23.3112 80.2491L81.3608 127.028L88.8085 115.132Z" fill="#F7A663"/>
<path d="M75.6277 160.498L75.6296 146.765L0 160.498L75.6277 174.236V160.498Z" fill="#FFC80A"/>
<path d="M88.8067 205.87L81.3626 193.972L23.3112 240.749L96.2507 217.766L88.8067 205.87Z" fill="#F7A663"/>
<path d="M111.919 232.215L86.9991 299.497L137.71 245.952L124.812 239.083L111.919 232.215Z" fill="#FFC80A"/>
<path d="M159.108 251.237L174 321L188.892 251.24H174L159.108 251.237Z" fill="#F7A663"/>
<path d="M223.186 239.083L210.29 245.948L260.999 299.497L236.083 232.215L223.186 239.083Z" fill="#FFC80A"/>
<path d="M259.193 205.87L251.746 217.763L324.687 240.749L266.636 193.972L259.193 205.87Z" fill="#F7A663"/>
<path d="M348 160.498L272.37 146.764L272.372 160.498L272.37 174.235L348 160.498Z" fill="#FFC80A"/>
<path d="M259.191 115.128L266.636 127.024L324.687 80.2491L251.744 103.234L259.191 115.128Z" fill="#F7A663"/>
<path d="M236.081 88.7864L260.999 21.5026L210.286 75.05L223.184 81.9182L236.081 88.7864Z" fill="#FFC80A"/>
<path d="M174 77.5673V243.434C223.656 243.434 263.91 206.304 263.91 160.5C263.91 114.696 223.656 77.5673 174 77.5673Z" fill="#FDD633"/>
<path d="M84.0917 160.5C84.0917 206.304 124.346 243.434 174 243.434V77.5673C124.346 77.5673 84.0917 114.698 84.0917 160.5Z" fill="#F4CA19"/>
</svg>
